<?xml version="1.0" encoding="UTF-8" standalone="no"?>
<!DOCTYPE svg PUBLIC "-//W3C//DTD SVG 1.1//EN"
 "http://www.w3.org/Graphics/SVG/1.1/DTD/svg11.dtd">
<!-- Generated by graphviz version 2.42.4 (0)
 -->
<!-- Title: HobbyMate_ERD Pages: 1 -->
<svg width="1753pt" height="1340pt"
 viewBox="0.00 0.00 1752.80 1339.80" xmlns="http://www.w3.org/2000/svg" xmlns:xlink="http://www.w3.org/1999/xlink">
<g id="graph0" class="graph" transform="scale(1 1) rotate(0) translate(14.4 1325.4)">
<title>HobbyMate_ERD</title>
<polygon fill="white" stroke="transparent" points="-14.4,14.4 -14.4,-1325.4 1738.4,-1325.4 1738.4,14.4 -14.4,14.4"/>
<!-- HM_MEMBER -->
<g id="node1" class="node">
<title>HM_MEMBER</title>
<polygon fill="#e8f5e9" stroke="black" points="24,-485.5 24,-593.5 195,-593.5 195,-485.5 24,-485.5"/>
<text text-anchor="middle" x="62" y="-537.3" font-family="Arial" font-size="9.00">HM_MEMBER</text>
<polyline fill="none" stroke="black" points="100,-485.5 100,-593.5 "/>
<text text-anchor="start" x="108" y="-582.3" font-family="Arial" font-size="9.00">PK MEMBER_ID</text>
<text text-anchor="start" x="108" y="-572.3" font-family="Arial" font-size="9.00">UK LOGIN_ID</text>
<text text-anchor="start" x="108" y="-562.3" font-family="Arial" font-size="9.00">NAME</text>
<text text-anchor="start" x="108" y="-552.3" font-family="Arial" font-size="9.00">UK NICKNAME</text>
<text text-anchor="start" x="108" y="-542.3" font-family="Arial" font-size="9.00">UK EMAIL</text>
<text text-anchor="start" x="108" y="-532.3" font-family="Arial" font-size="9.00">PHONE</text>
<text text-anchor="start" x="108" y="-522.3" font-family="Arial" font-size="9.00">BIRTH_DATE</text>
<text text-anchor="start" x="108" y="-512.3" font-family="Arial" font-size="9.00">GENDER</text>
<text text-anchor="start" x="108" y="-502.3" font-family="Arial" font-size="9.00">MEMBER_ROLE</text>
<text text-anchor="start" x="108" y="-492.3" font-family="Arial" font-size="9.00">MEMBER_STATUS</text>
</g>
<!-- HM_CLUB -->
<g id="node3" class="node">
<title>HM_CLUB</title>
<polygon fill="#f1f8e9" stroke="black" points="405,-945.5 405,-1063.5 590,-1063.5 590,-945.5 405,-945.5"/>
<text text-anchor="middle" x="435.5" y="-1002.3" font-family="Arial" font-size="9.00">HM_CLUB</text>
<polyline fill="none" stroke="black" points="466,-945.5 466,-1063.5 "/>
<text text-anchor="start" x="474" y="-1052.3" font-family="Arial" font-size="9.00">PK CLUB_ID</text>
<text text-anchor="start" x="474" y="-1042.3" font-family="Arial" font-size="9.00">FK OWNER_MEMBER_ID</text>
<text text-anchor="start" x="474" y="-1032.3" font-family="Arial" font-size="9.00">FK CATEGORY_ID</text>
<text text-anchor="start" x="474" y="-1022.3" font-family="Arial" font-size="9.00">CLUB_NAME</text>
<text text-anchor="start" x="474" y="-1012.3" font-family="Arial" font-size="9.00">GENDER_POLICY</text>
<text text-anchor="start" x="474" y="-1002.3" font-family="Arial" font-size="9.00">MIN_AGE</text>
<text text-anchor="start" x="474" y="-992.3" font-family="Arial" font-size="9.00">MAX_AGE</text>
<text text-anchor="start" x="474" y="-982.3" font-family="Arial" font-size="9.00">MAX_MEMBER_COUNT</text>
<text text-anchor="start" x="474" y="-972.3" font-family="Arial" font-size="9.00">JOIN_TYPE</text>
<text text-anchor="start" x="474" y="-962.3" font-family="Arial" font-size="9.00">CLUB_STATUS</text>
<text text-anchor="start" x="474" y="-952.3" font-family="Arial" font-size="9.00">RECRUIT_STATUS</text>
</g>
<!-- HM_MEMBER&#45;&gt;HM_CLUB -->
<g id="edge1" class="edge">
<title>HM_MEMBER&#45;&gt;HM_CLUB</title>
<path fill="none" stroke="#666666" d="M129.62,-593.59C167.4,-700.48 248,-928.5 248,-928.5 248,-928.5 328.28,-953.05 397.58,-974.25"/>
<polygon fill="#666666" stroke="#666666" points="397.26,-976.71 404.67,-976.42 398.7,-972.03 397.26,-976.71"/>
<text text-anchor="middle" x="281.5" y="-951.1" font-family="Arial" font-size="8.00">1:N OWNER</text>
</g>
<!-- HM_CLUB_MEMBER -->
<g id="node4" class="node">
<title>HM_CLUB_MEMBER</title>
<polygon fill="#f1f8e9" stroke="black" points="783,-1053.5 783,-1121.5 1004,-1121.5 1004,-1053.5 783,-1053.5"/>
<text text-anchor="middle" x="836" y="-1085.3" font-family="Arial" font-size="9.00">HM_CLUB_MEMBER</text>
<polyline fill="none" stroke="black" points="889,-1053.5 889,-1121.5 "/>
<text text-anchor="start" x="897" y="-1110.3" font-family="Arial" font-size="9.00">PK CLUB_MEMBER_ID</text>
<text text-anchor="start" x="897" y="-1100.3" font-family="Arial" font-size="9.00">FK CLUB_ID</text>
<text text-anchor="start" x="897" y="-1090.3" font-family="Arial" font-size="9.00">FK MEMBER_ID</text>
<text text-anchor="start" x="897" y="-1080.3" font-family="Arial" font-size="9.00">CLUB_ROLE</text>
<text text-anchor="start" x="897" y="-1070.3" font-family="Arial" font-size="9.00">MEMBER_STATUS</text>
<text text-anchor="start" x="897" y="-1060.3" font-family="Arial" font-size="9.00">JOINED_AT</text>
</g>
<!-- HM_MEMBER&#45;&gt;HM_CLUB_MEMBER -->
<g id="edge5" class="edge">
<title>HM_MEMBER&#45;&gt;HM_CLUB_MEMBER</title>
<path fill="none" stroke="#666666" d="M128.05,-593.89C165.12,-708.73 248,-965.5 248,-965.5 248,-965.5 344,-1080.5 344,-1080.5 344,-1080.5 614.65,-1083.95 775.71,-1086.01"/>
<polygon fill="#666666" stroke="#666666" points="775.79,-1088.46 782.82,-1086.1 775.85,-1083.56 775.79,-1088.46"/>
<text text-anchor="middle" x="497.5" y="-1086.1" font-family="Arial" font-size="8.00">1:N</text>
</g>
<!-- HM_CLUB_JOIN_REQUEST -->
<g id="node5" class="node">
<title>HM_CLUB_JOIN_REQUEST</title>
<polygon fill="#f1f8e9" stroke="black" points="769,-846.5 769,-914.5 1018,-914.5 1018,-846.5 769,-846.5"/>
<text text-anchor="middle" x="836.5" y="-878.3" font-family="Arial" font-size="9.00">HM_CLUB_JOIN_REQUEST</text>
<polyline fill="none" stroke="black" points="904,-846.5 904,-914.5 "/>
<text text-anchor="start" x="912" y="-903.3" font-family="Arial" font-size="9.00">PK JOIN_REQUEST_ID</text>
<text text-anchor="start" x="912" y="-893.3" font-family="Arial" font-size="9.00">FK CLUB_ID</text>
<text text-anchor="start" x="912" y="-883.3" font-family="Arial" font-size="9.00">FK MEMBER_ID</text>
<text text-anchor="start" x="912" y="-873.3" font-family="Arial" font-size="9.00">FK PROCESSED_BY</text>
<text text-anchor="start" x="912" y="-863.3" font-family="Arial" font-size="9.00">REQUEST_STATUS</text>
<text text-anchor="start" x="912" y="-853.3" font-family="Arial" font-size="9.00">REQUEST_MESSAGE</text>
</g>
<!-- HM_MEMBER&#45;&gt;HM_CLUB_JOIN_REQUEST -->
<g id="edge7" class="edge">
<title>HM_MEMBER&#45;&gt;HM_CLUB_JOIN_REQUEST</title>
<path fill="none" stroke="#666666" d="M143.26,-593.58C183.93,-660.73 248,-766.5 248,-766.5 248,-766.5 344,-855.5 344,-855.5 344,-855.5 599.3,-867.14 761.55,-874.53"/>
<polygon fill="#666666" stroke="#666666" points="761.62,-876.99 768.72,-874.86 761.84,-872.09 761.62,-876.99"/>
<text text-anchor="middle" x="497.5" y="-871.1" font-family="Arial" font-size="8.00">1:N REQUESTER</text>
</g>
<!-- HM_MEMBER&#45;&gt;HM_CLUB_JOIN_REQUEST -->
<g id="edge8" class="edge">
<title>HM_MEMBER&#45;&gt;HM_CLUB_JOIN_REQUEST</title>
<path fill="none" stroke="#666666" d="M195.13,-587.7C261.95,-625.77 344,-672.5 344,-672.5 344,-672.5 651,-725.5 651,-725.5 651,-725.5 758,-805.5 758,-805.5 758,-805.5 791.39,-824.12 824.9,-842.81"/>
<polygon fill="#666666" stroke="#666666" points="823.85,-845.02 831.15,-846.29 826.23,-840.74 823.85,-845.02"/>
<text text-anchor="middle" x="497.5" y="-728.1" font-family="Arial" font-size="8.00">1:N PROCESSOR</text>
</g>
<!-- HM_MEETING -->
<g id="node6" class="node">
<title>HM_MEETING</title>
<polygon fill="#e3f2fd" stroke="black" points="795.5,-630.5 795.5,-788.5 991.5,-788.5 991.5,-630.5 795.5,-630.5"/>
<text text-anchor="middle" x="834" y="-707.3" font-family="Arial" font-size="9.00">HM_MEETING</text>
<polyline fill="none" stroke="black" points="872.5,-630.5 872.5,-788.5 "/>
<text text-anchor="start" x="880.5" y="-777.3" font-family="Arial" font-size="9.00">PK MEETING_ID</text>
<text text-anchor="start" x="880.5" y="-767.3" font-family="Arial" font-size="9.00">FK CLUB_ID</text>
<text text-anchor="start" x="880.5" y="-757.3" font-family="Arial" font-size="9.00">FK CREATED_BY</text>
<text text-anchor="start" x="880.5" y="-747.3" font-family="Arial" font-size="9.00">MEETING_TITLE</text>
<text text-anchor="start" x="880.5" y="-737.3" font-family="Arial" font-size="9.00">MEETING_TYPE</text>
<text text-anchor="start" x="880.5" y="-727.3" font-family="Arial" font-size="9.00">START_DATETIME</text>
<text text-anchor="start" x="880.5" y="-717.3" font-family="Arial" font-size="9.00">END_DATETIME</text>
<text text-anchor="start" x="880.5" y="-707.3" font-family="Arial" font-size="9.00">MAX_MEMBER_COUNT</text>
<text text-anchor="start" x="880.5" y="-697.3" font-family="Arial" font-size="9.00">MEETING_STATUS</text>
<text text-anchor="start" x="880.5" y="-687.3" font-family="Arial" font-size="9.00">PLACE_NAME</text>
<text text-anchor="start" x="880.5" y="-677.3" font-family="Arial" font-size="9.00">LATITUDE</text>
<text text-anchor="start" x="880.5" y="-667.3" font-family="Arial" font-size="9.00">LONGITUDE</text>
<text text-anchor="start" x="880.5" y="-657.3" font-family="Arial" font-size="9.00">MAP_PROVIDER</text>
<text text-anchor="start" x="880.5" y="-647.3" font-family="Arial" font-size="9.00">VIDEO_PLATFORM</text>
<text text-anchor="start" x="880.5" y="-637.3" font-family="Arial" font-size="9.00">MEETING_URL</text>
</g>
<!-- HM_MEMBER&#45;&gt;HM_MEETING -->
<g id="edge10" class="edge">
<title>HM_MEMBER&#45;&gt;HM_MEETING</title>
<path fill="none" stroke="#666666" d="M195.23,-564.15C223.53,-572.38 248,-579.5 248,-579.5 248,-579.5 651,-659.5 651,-659.5 651,-659.5 722.88,-674.38 788.21,-687.91"/>
<polygon fill="#666666" stroke="#666666" points="787.97,-690.36 795.32,-689.38 788.96,-685.56 787.97,-690.36"/>
<text text-anchor="middle" x="497.5" y="-662.1" font-family="Arial" font-size="8.00">1:N CREATOR</text>
</g>
<!-- HM_MEETING_PARTICIPANT -->
<g id="node7" class="node">
<title>HM_MEETING_PARTICIPANT</title>
<polygon fill="#e3f2fd" stroke="black" points="1109,-469.5 1109,-517.5 1396,-517.5 1396,-469.5 1109,-469.5"/>
<text text-anchor="middle" x="1178.5" y="-491.3" font-family="Arial" font-size="9.00">HM_MEETING_PARTICIPANT</text>
<polyline fill="none" stroke="black" points="1248,-469.5 1248,-517.5 "/>
<text text-anchor="start" x="1256" y="-506.3" font-family="Arial" font-size="9.00">PK MEETING_PARTICIPANT_ID</text>
<text text-anchor="start" x="1256" y="-496.3" font-family="Arial" font-size="9.00">FK MEETING_ID</text>
<text text-anchor="start" x="1256" y="-486.3" font-family="Arial" font-size="9.00">FK MEMBER_ID</text>
<text text-anchor="start" x="1256" y="-476.3" font-family="Arial" font-size="9.00">PARTICIPATION_STATUS</text>
</g>
<!-- HM_MEMBER&#45;&gt;HM_MEETING_PARTICIPANT -->
<g id="edge12" class="edge">
<title>HM_MEMBER&#45;&gt;HM_MEETING_PARTICIPANT</title>
<path fill="none" stroke="#666666" d="M195.13,-492.38C261.95,-455.18 344,-409.5 344,-409.5 344,-409.5 651,-409.5 651,-409.5 651,-409.5 923.87,-447.67 1101.73,-472.55"/>
<polygon fill="#666666" stroke="#666666" points="1101.54,-475 1108.81,-473.54 1102.22,-470.14 1101.54,-475"/>
<text text-anchor="middle" x="704.5" y="-423.1" font-family="Arial" font-size="8.00">1:N</text>
</g>
<!-- HM_CLUB_POST -->
<g id="node8" class="node">
<title>HM_CLUB_POST</title>
<polygon fill="#fff8e1" stroke="black" points="1143.5,-895.5 1143.5,-983.5 1361.5,-983.5 1361.5,-895.5 1143.5,-895.5"/>
<text text-anchor="middle" x="1188.5" y="-937.3" font-family="Arial" font-size="9.00">HM_CLUB_POST</text>
<polyline fill="none" stroke="black" points="1233.5,-895.5 1233.5,-983.5 "/>
<text text-anchor="start" x="1241.5" y="-972.3" font-family="Arial" font-size="9.00">PK CLUB_POST_ID</text>
<text text-anchor="start" x="1241.5" y="-962.3" font-family="Arial" font-size="9.00">FK CLUB_ID</text>
<text text-anchor="start" x="1241.5" y="-952.3" font-family="Arial" font-size="9.00">FK AUTHOR_MEMBER_ID</text>
<text text-anchor="start" x="1241.5" y="-942.3" font-family="Arial" font-size="9.00">FK MEETING_ID</text>
<text text-anchor="start" x="1241.5" y="-932.3" font-family="Arial" font-size="9.00">POST_TYPE</text>
<text text-anchor="start" x="1241.5" y="-922.3" font-family="Arial" font-size="9.00">TITLE</text>
<text text-anchor="start" x="1241.5" y="-912.3" font-family="Arial" font-size="9.00">CONTENT</text>
<text text-anchor="start" x="1241.5" y="-902.3" font-family="Arial" font-size="9.00">POST_STATUS</text>
</g>
<!-- HM_MEMBER&#45;&gt;HM_CLUB_POST -->
<g id="edge14" class="edge">
<title>HM_MEMBER&#45;&gt;HM_CLUB_POST</title>
<path fill="none" stroke="#666666" d="M195.26,-544.22C431.49,-557.38 1080,-593.5 1080,-593.5 1080,-593.5 1178.78,-792.79 1226.41,-888.87"/>
<polygon fill="#666666" stroke="#666666" points="1224.3,-890.14 1229.61,-895.33 1228.69,-887.97 1224.3,-890.14"/>
<text text-anchor="middle" x="704.5" y="-577.1" font-family="Arial" font-size="8.00">1:N AUTHOR</text>
</g>
<!-- HM_CLUB_COMMENT -->
<g id="node10" class="node">
<title>HM_CLUB_COMMENT</title>
<polygon fill="#fff8e1" stroke="black" points="1473,-1084.5 1473,-1152.5 1718,-1152.5 1718,-1084.5 1473,-1084.5"/>
<text text-anchor="middle" x="1529.5" y="-1116.3" font-family="Arial" font-size="9.00">HM_CLUB_COMMENT</text>
<polyline fill="none" stroke="black" points="1586,-1084.5 1586,-1152.5 "/>
<text text-anchor="start" x="1594" y="-1141.3" font-family="Arial" font-size="9.00">PK CLUB_COMMENT_ID</text>
<text text-anchor="start" x="1594" y="-1131.3" font-family="Arial" font-size="9.00">FK CLUB_POST_ID</text>
<text text-anchor="start" x="1594" y="-1121.3" font-family="Arial" font-size="9.00">FK AUTHOR_MEMBER_ID</text>
<text text-anchor="start" x="1594" y="-1111.3" font-family="Arial" font-size="9.00">FK PARENT_COMMENT_ID</text>
<text text-anchor="start" x="1594" y="-1101.3" font-family="Arial" font-size="9.00">CONTENT</text>
<text text-anchor="start" x="1594" y="-1091.3" font-family="Arial" font-size="9.00">COMMENT_STATUS</text>
</g>
<!-- HM_MEMBER&#45;&gt;HM_CLUB_COMMENT -->
<g id="edge18" class="edge">
<title>HM_MEMBER&#45;&gt;HM_CLUB_COMMENT</title>
<path fill="none" stroke="#666666" d="M125.74,-593.81C161.54,-721.39 248,-1029.5 248,-1029.5 248,-1029.5 344,-1100.5 344,-1100.5 344,-1100.5 496.5,-1186.5 496.5,-1186.5 496.5,-1186.5 496.5,-1186.5 1253.5,-1186.5 1253.5,-1186.5 1369.28,-1163.41 1465.91,-1144.14"/>
<polygon fill="#666666" stroke="#666666" points="1466.45,-1146.53 1472.84,-1142.76 1465.49,-1141.73 1466.45,-1146.53"/>
<text text-anchor="middle" x="893.5" y="-1189.1" font-family="Arial" font-size="8.00">1:N AUTHOR</text>
</g>
<!-- HM_BOARD_POST -->
<g id="node11" class="node">
<title>HM_BOARD_POST</title>
<polygon fill="#fce4ec" stroke="black" points="384.5,-0.5 384.5,-88.5 610.5,-88.5 610.5,-0.5 384.5,-0.5"/>
<text text-anchor="middle" x="433.5" y="-42.3" font-family="Arial" font-size="9.00">HM_BOARD_POST</text>
<polyline fill="none" stroke="black" points="482.5,-0.5 482.5,-88.5 "/>
<text text-anchor="start" x="490.5" y="-77.3" font-family="Arial" font-size="9.00">PK BOARD_POST_ID</text>
<text text-anchor="start" x="490.5" y="-67.3" font-family="Arial" font-size="9.00">FK AUTHOR_MEMBER_ID</text>
<text text-anchor="start" x="490.5" y="-57.3" font-family="Arial" font-size="9.00">BOARD_TYPE</text>
<text text-anchor="start" x="490.5" y="-47.3" font-family="Arial" font-size="9.00">TITLE</text>
<text text-anchor="start" x="490.5" y="-37.3" font-family="Arial" font-size="9.00">CONTENT</text>
<text text-anchor="start" x="490.5" y="-27.3" font-family="Arial" font-size="9.00">TOP_FIXED_YN</text>
<text text-anchor="start" x="490.5" y="-17.3" font-family="Arial" font-size="9.00">COMMENT_USE_YN</text>
<text text-anchor="start" x="490.5" y="-7.3" font-family="Arial" font-size="9.00">POST_STATUS</text>
</g>
<!-- HM_MEMBER&#45;&gt;HM_BOARD_POST -->
<g id="edge20" class="edge">
<title>HM_MEMBER&#45;&gt;HM_BOARD_POST</title>
<path fill="none" stroke="#666666" d="M128.19,-485.45C165.33,-372.02 248,-119.5 248,-119.5 248,-119.5 313.53,-99.72 377.29,-80.48"/>
<polygon fill="#666666" stroke="#666666" points="378.25,-82.75 384.25,-78.38 376.84,-78.06 378.25,-82.75"/>
<text text-anchor="middle" x="281.5" y="-122.1" font-family="Arial" font-size="8.00">1:N AUTHOR</text>
</g>
<!-- HM_BOARD_COMMENT -->
<g id="node13" class="node">
<title>HM_BOARD_COMMENT</title>
<polygon fill="#fce4ec" stroke="black" points="767.5,-115.5 767.5,-183.5 1019.5,-183.5 1019.5,-115.5 767.5,-115.5"/>
<text text-anchor="middle" x="827.5" y="-147.3" font-family="Arial" font-size="9.00">HM_BOARD_COMMENT</text>
<polyline fill="none" stroke="black" points="887.5,-115.5 887.5,-183.5 "/>
<text text-anchor="start" x="895.5" y="-172.3" font-family="Arial" font-size="9.00">PK BOARD_COMMENT_ID</text>
<text text-anchor="start" x="895.5" y="-162.3" font-family="Arial" font-size="9.00">FK BOARD_POST_ID</text>
<text text-anchor="start" x="895.5" y="-152.3" font-family="Arial" font-size="9.00">FK AUTHOR_MEMBER_ID</text>
<text text-anchor="start" x="895.5" y="-142.3" font-family="Arial" font-size="9.00">FK PARENT_COMMENT_ID</text>
<text text-anchor="start" x="895.5" y="-132.3" font-family="Arial" font-size="9.00">CONTENT</text>
<text text-anchor="start" x="895.5" y="-122.3" font-family="Arial" font-size="9.00">COMMENT_STATUS</text>
</g>
<!-- HM_MEMBER&#45;&gt;HM_BOARD_COMMENT -->
<g id="edge23" class="edge">
<title>HM_MEMBER&#45;&gt;HM_BOARD_COMMENT</title>
<path fill="none" stroke="#666666" d="M136.52,-485.37C176.39,-402.45 248,-253.5 248,-253.5 248,-253.5 344,-225.5 344,-225.5 344,-225.5 597.86,-190.32 760.17,-167.84"/>
<polygon fill="#666666" stroke="#666666" points="760.75,-170.23 767.35,-166.84 760.08,-165.37 760.75,-170.23"/>
<text text-anchor="middle" x="497.5" y="-228.1" font-family="Arial" font-size="8.00">1:N AUTHOR</text>
</g>
<!-- HM_SUGGESTION -->
<g id="node14" class="node">
<title>HM_SUGGESTION</title>
<polygon fill="#f3e5f5" stroke="black" points="386,-268.5 386,-326.5 609,-326.5 609,-268.5 386,-268.5"/>
<text text-anchor="middle" x="433.5" y="-295.3" font-family="Arial" font-size="9.00">HM_SUGGESTION</text>
<polyline fill="none" stroke="black" points="481,-268.5 481,-326.5 "/>
<text text-anchor="start" x="489" y="-315.3" font-family="Arial" font-size="9.00">PK SUGGESTION_ID</text>
<text text-anchor="start" x="489" y="-305.3" font-family="Arial" font-size="9.00">FK AUTHOR_MEMBER_ID</text>
<text text-anchor="start" x="489" y="-295.3" font-family="Arial" font-size="9.00">FK PROCESSED_BY</text>
<text text-anchor="start" x="489" y="-285.3" font-family="Arial" font-size="9.00">TITLE</text>
<text text-anchor="start" x="489" y="-275.3" font-family="Arial" font-size="9.00">SUGGESTION_STATUS</text>
</g>
<!-- HM_MEMBER&#45;&gt;HM_SUGGESTION -->
<g id="edge25" class="edge">
<title>HM_MEMBER&#45;&gt;HM_SUGGESTION</title>
<path fill="none" stroke="#666666" d="M148.98,-485.48C189.66,-428.39 248,-346.5 248,-346.5 248,-346.5 314.49,-333.39 378.69,-320.73"/>
<polygon fill="#666666" stroke="#666666" points="379.3,-323.11 385.7,-319.35 378.35,-318.3 379.3,-323.11"/>
<text text-anchor="middle" x="281.5" y="-349.1" font-family="Arial" font-size="8.00">1:N AUTHOR</text>
</g>
<!-- HM_MEMBER&#45;&gt;HM_SUGGESTION -->
<g id="edge26" class="edge">
<title>HM_MEMBER&#45;&gt;HM_SUGGESTION</title>
<path fill="none" stroke="#666666" d="M143.96,-485.23C184.66,-419.22 248,-316.5 248,-316.5 248,-316.5 314.49,-311.42 378.69,-306.51"/>
<polygon fill="#666666" stroke="#666666" points="378.9,-308.95 385.7,-305.97 378.53,-304.06 378.9,-308.95"/>
<text text-anchor="middle" x="281.5" y="-319.1" font-family="Arial" font-size="8.00">1:N PROCESSOR</text>
</g>
<!-- HM_SUGGESTION_REPLY -->
<g id="node15" class="node">
<title>HM_SUGGESTION_REPLY</title>
<polygon fill="#f3e5f5" stroke="black" points="759,-252.5 759,-300.5 1028,-300.5 1028,-252.5 759,-252.5"/>
<text text-anchor="middle" x="824" y="-274.3" font-family="Arial" font-size="9.00">HM_SUGGESTION_REPLY</text>
<polyline fill="none" stroke="black" points="889,-252.5 889,-300.5 "/>
<text text-anchor="start" x="897" y="-289.3" font-family="Arial" font-size="9.00">PK SUGGESTION_REPLY_ID</text>
<text text-anchor="start" x="897" y="-279.3" font-family="Arial" font-size="9.00">FK SUGGESTION_ID</text>
<text text-anchor="start" x="897" y="-269.3" font-family="Arial" font-size="9.00">FK ADMIN_MEMBER_ID</text>
<text text-anchor="start" x="897" y="-259.3" font-family="Arial" font-size="9.00">REPLY_CONTENT</text>
</g>
<!-- HM_MEMBER&#45;&gt;HM_SUGGESTION_REPLY -->
<g id="edge28" class="edge">
<title>HM_MEMBER&#45;&gt;HM_SUGGESTION_REPLY</title>
<path fill="none" stroke="#666666" d="M142.05,-485.36C182.64,-415.68 248,-303.5 248,-303.5 248,-303.5 344,-242.5 344,-242.5 344,-242.5 651,-242.5 651,-242.5 651,-242.5 698.59,-249.2 751.53,-256.65"/>
<polygon fill="#666666" stroke="#666666" points="751.41,-259.11 758.68,-257.66 752.09,-254.26 751.41,-259.11"/>
<text text-anchor="middle" x="497.5" y="-245.1" font-family="Arial" font-size="8.00">1:N ADMIN</text>
</g>
<!-- HM_REPORT -->
<g id="node16" class="node">
<title>HM_REPORT</title>
<polygon fill="#f3e5f5" stroke="black" points="391.5,-426.5 391.5,-504.5 603.5,-504.5 603.5,-426.5 391.5,-426.5"/>
<text text-anchor="middle" x="428" y="-463.3" font-family="Arial" font-size="9.00">HM_REPORT</text>
<polyline fill="none" stroke="black" points="464.5,-426.5 464.5,-504.5 "/>
<text text-anchor="start" x="472.5" y="-493.3" font-family="Arial" font-size="9.00">PK REPORT_ID</text>
<text text-anchor="start" x="472.5" y="-483.3" font-family="Arial" font-size="9.00">FK REPORTER_MEMBER_ID</text>
<text text-anchor="start" x="472.5" y="-473.3" font-family="Arial" font-size="9.00">FK PROCESSED_BY</text>
<text text-anchor="start" x="472.5" y="-463.3" font-family="Arial" font-size="9.00">TARGET_TYPE</text>
<text text-anchor="start" x="472.5" y="-453.3" font-family="Arial" font-size="9.00">TARGET_ID</text>
<text text-anchor="start" x="472.5" y="-443.3" font-family="Arial" font-size="9.00">REPORT_REASON</text>
<text text-anchor="start" x="472.5" y="-433.3" font-family="Arial" font-size="9.00">REPORT_STATUS</text>
</g>
<!-- HM_MEMBER&#45;&gt;HM_REPORT -->
<g id="edge29" class="edge">
<title>HM_MEMBER&#45;&gt;HM_REPORT</title>
<path fill="none" stroke="#666666" d="M195.21,-523.26C250.77,-512.61 324.03,-498.56 384.4,-486.99"/>
<polygon fill="#666666" stroke="#666666" points="384.91,-489.39 391.32,-485.66 383.98,-484.58 384.91,-489.39"/>
<text text-anchor="middle" x="281.5" y="-514.1" font-family="Arial" font-size="8.00">1:N REPORTER</text>
</g>
<!-- HM_MEMBER&#45;&gt;HM_REPORT -->
<g id="edge30" class="edge">
<title>HM_MEMBER&#45;&gt;HM_REPORT</title>
<path fill="none" stroke="#666666" d="M195.23,-506.22C223.53,-495.11 248,-485.5 248,-485.5 248,-485.5 318.43,-479.83 384.3,-474.53"/>
<polygon fill="#666666" stroke="#666666" points="384.69,-476.96 391.47,-473.95 384.3,-472.07 384.69,-476.96"/>
<text text-anchor="middle" x="281.5" y="-488.1" font-family="Arial" font-size="8.00">1:N PROCESSOR</text>
</g>
<!-- HM_ADMIN_ACTION_HISTORY -->
<g id="node17" class="node">
<title>HM_ADMIN_ACTION_HISTORY</title>
<polygon fill="#f3e5f5" stroke="black" points="344,-750.5 344,-838.5 651,-838.5 651,-750.5 344,-750.5"/>
<text text-anchor="middle" x="418.5" y="-792.3" font-family="Arial" font-size="9.00">HM_ADMIN_ACTION_HISTORY</text>
<polyline fill="none" stroke="black" points="493,-750.5 493,-838.5 "/>
<text text-anchor="start" x="501" y="-827.3" font-family="Arial" font-size="9.00">PK ADMIN_ACTION_HISTORY_ID</text>
<text text-anchor="start" x="501" y="-817.3" font-family="Arial" font-size="9.00">FK ADMIN_MEMBER_ID</text>
<text text-anchor="start" x="501" y="-807.3" font-family="Arial" font-size="9.00">TARGET_TYPE</text>
<text text-anchor="start" x="501" y="-797.3" font-family="Arial" font-size="9.00">TARGET_ID</text>
<text text-anchor="start" x="501" y="-787.3" font-family="Arial" font-size="9.00">ACTION_TYPE</text>
<text text-anchor="start" x="501" y="-777.3" font-family="Arial" font-size="9.00">BEFORE_STATUS</text>
<text text-anchor="start" x="501" y="-767.3" font-family="Arial" font-size="9.00">AFTER_STATUS</text>
<text text-anchor="start" x="501" y="-757.3" font-family="Arial" font-size="9.00">ACTION_RESULT</text>
</g>
<!-- HM_MEMBER&#45;&gt;HM_ADMIN_ACTION_HISTORY -->
<g id="edge31" class="edge">
<title>HM_MEMBER&#45;&gt;HM_ADMIN_ACTION_HISTORY</title>
<path fill="none" stroke="#666666" d="M148.8,-593.54C189.49,-650.94 248,-733.5 248,-733.5 248,-733.5 288.53,-743.45 336.85,-755.31"/>
<polygon fill="#666666" stroke="#666666" points="336.34,-757.71 343.72,-757 337.51,-752.95 336.34,-757.71"/>
<text text-anchor="middle" x="281.5" y="-752.1" font-family="Arial" font-size="8.00">1:N ADMIN</text>
</g>
<!-- HM_CATEGORY -->
<g id="node2" class="node">
<title>HM_CATEGORY</title>
<polygon fill="#e8f5e9" stroke="black" points="0,-1211.5 0,-1269.5 219,-1269.5 219,-1211.5 0,-1211.5"/>
<text text-anchor="middle" x="42.5" y="-1238.3" font-family="Arial" font-size="9.00">HM_CATEGORY</text>
<polyline fill="none" stroke="black" points="85,-1211.5 85,-1269.5 "/>
<text text-anchor="start" x="93" y="-1258.3" font-family="Arial" font-size="9.00">PK CATEGORY_ID</text>
<text text-anchor="start" x="93" y="-1248.3" font-family="Arial" font-size="9.00">FK PARENT_CATEGORY_ID</text>
<text text-anchor="start" x="93" y="-1238.3" font-family="Arial" font-size="9.00">CATEGORY_NAME</text>
<text text-anchor="start" x="93" y="-1228.3" font-family="Arial" font-size="9.00">DISPLAY_ORDER</text>
<text text-anchor="start" x="93" y="-1218.3" font-family="Arial" font-size="9.00">USE_YN</text>
</g>
<!-- HM_CATEGORY&#45;&gt;HM_CATEGORY -->
<g id="edge3" class="edge">
<title>HM_CATEGORY&#45;&gt;HM_CATEGORY</title>
<path fill="none" stroke="#666666" d="M79.02,-1269.61C72.8,-1286.38 82.96,-1302 109.5,-1302 132.31,-1302 143.02,-1290.47 141.63,-1276.57"/>
<polygon fill="#666666" stroke="#666666" points="143.98,-1275.85 139.98,-1269.61 139.21,-1276.98 143.98,-1275.85"/>
<text text-anchor="middle" x="109.5" y="-1304.6" font-family="Arial" font-size="8.00">1:N PARENT</text>
</g>
<!-- HM_CATEGORY&#45;&gt;HM_CLUB -->
<g id="edge2" class="edge">
<title>HM_CATEGORY&#45;&gt;HM_CLUB</title>
<path fill="none" stroke="#666666" d="M155.24,-1211.37C223.05,-1167.24 344,-1088.5 344,-1088.5 344,-1088.5 368.76,-1074.86 398.33,-1058.57"/>
<polygon fill="#666666" stroke="#666666" points="399.76,-1060.58 404.71,-1055.06 397.4,-1056.29 399.76,-1060.58"/>
<text text-anchor="middle" x="281.5" y="-1153.1" font-family="Arial" font-size="8.00">1:N CATEGORY</text>
</g>
<!-- HM_CLUB&#45;&gt;HM_CLUB_MEMBER -->
<g id="edge4" class="edge">
<title>HM_CLUB&#45;&gt;HM_CLUB_MEMBER</title>
<path fill="none" stroke="#666666" d="M590.38,-1023.86C645.66,-1035.5 716.56,-1050.44 775.79,-1062.91"/>
<polygon fill="#666666" stroke="#666666" points="775.59,-1065.38 782.95,-1064.42 776.6,-1060.58 775.59,-1065.38"/>
<text text-anchor="middle" x="704.5" y="-1053.1" font-family="Arial" font-size="8.00">1:N</text>
</g>
<!-- HM_CLUB&#45;&gt;HM_CLUB_JOIN_REQUEST -->
<g id="edge6" class="edge">
<title>HM_CLUB&#45;&gt;HM_CLUB_JOIN_REQUEST</title>
<path fill="none" stroke="#666666" d="M590.26,-980.61C654.54,-963.88 729,-944.5 729,-944.5 729,-944.5 762.18,-931.51 798.64,-917.24"/>
<polygon fill="#666666" stroke="#666666" points="799.86,-919.39 805.48,-914.56 798.07,-914.83 799.86,-919.39"/>
<text text-anchor="middle" x="704.5" y="-958.1" font-family="Arial" font-size="8.00">1:N</text>
</g>
<!-- HM_CLUB&#45;&gt;HM_MEETING -->
<g id="edge9" class="edge">
<title>HM_CLUB&#45;&gt;HM_MEETING</title>
<path fill="none" stroke="#666666" d="M590.29,-953.94C622.59,-936.15 651,-920.5 651,-920.5 651,-920.5 728.92,-852.42 796.24,-793.61"/>
<polygon fill="#666666" stroke="#666666" points="798.23,-795.12 801.89,-788.67 795,-791.43 798.23,-795.12"/>
<text text-anchor="middle" x="704.5" y="-896.1" font-family="Arial" font-size="8.00">1:N</text>
</g>
<!-- HM_CLUB&#45;&gt;HM_CLUB_POST -->
<g id="edge13" class="edge">
<title>HM_CLUB&#45;&gt;HM_CLUB_POST</title>
<path fill="none" stroke="#666666" d="M590.08,-996.59C727.34,-984.75 986.25,-962.4 1136.2,-949.45"/>
<polygon fill="#666666" stroke="#666666" points="1136.49,-951.89 1143.26,-948.84 1136.07,-947 1136.49,-951.89"/>
<text text-anchor="middle" x="893.5" y="-984.1" font-family="Arial" font-size="8.00">1:N</text>
</g>
<!-- HM_MEETING&#45;&gt;HM_MEETING_PARTICIPANT -->
<g id="edge11" class="edge">
<title>HM_MEETING&#45;&gt;HM_MEETING_PARTICIPANT</title>
<path fill="none" stroke="#666666" d="M991.58,-650.76C1061.16,-608.66 1151.76,-553.85 1205.55,-521.3"/>
<polygon fill="#666666" stroke="#666666" points="1206.89,-523.36 1211.61,-517.64 1204.35,-519.16 1206.89,-523.36"/>
<text text-anchor="middle" x="1069" y="-610.1" font-family="Arial" font-size="8.00">1:N</text>
</g>
<!-- HM_MEETING&#45;&gt;HM_CLUB_POST -->
<g id="edge15" class="edge">
<title>HM_MEETING&#45;&gt;HM_CLUB_POST</title>
<path fill="none" stroke="#666666" d="M991.58,-772.04C1049.93,-809.64 1123.06,-856.75 1176.87,-891.42"/>
<polygon fill="#666666" stroke="#666666" points="1175.79,-893.64 1183,-895.37 1178.44,-889.52 1175.79,-893.64"/>
<text text-anchor="middle" x="1069" y="-827.1" font-family="Arial" font-size="8.00">0..1:N</text>
</g>
<!-- HM_CLUB_POST_IMAGE -->
<g id="node9" class="node">
<title>HM_CLUB_POST_IMAGE</title>
<polygon fill="#fff8e1" stroke="black" points="1467,-905.5 1467,-973.5 1724,-973.5 1724,-905.5 1467,-905.5"/>
<text text-anchor="middle" x="1529" y="-937.3" font-family="Arial" font-size="9.00">HM_CLUB_POST_IMAGE</text>
<polyline fill="none" stroke="black" points="1591,-905.5 1591,-973.5 "/>
<text text-anchor="start" x="1599" y="-962.3" font-family="Arial" font-size="9.00">PK CLUB_POST_IMAGE_ID</text>
<text text-anchor="start" x="1599" y="-952.3" font-family="Arial" font-size="9.00">FK CLUB_POST_ID</text>
<text text-anchor="start" x="1599" y="-942.3" font-family="Arial" font-size="9.00">UPLOAD_TOKEN</text>
<text text-anchor="start" x="1599" y="-932.3" font-family="Arial" font-size="9.00">FILE_URL</text>
<text text-anchor="start" x="1599" y="-922.3" font-family="Arial" font-size="9.00">ALIGN_TYPE</text>
<text text-anchor="start" x="1599" y="-912.3" font-family="Arial" font-size="9.00">IMAGE_STATUS</text>
</g>
<!-- HM_CLUB_POST&#45;&gt;HM_CLUB_POST_IMAGE -->
<g id="edge16" class="edge">
<title>HM_CLUB_POST&#45;&gt;HM_CLUB_POST_IMAGE</title>
<path fill="none" stroke="#666666" d="M1361.86,-939.5C1392.87,-939.5 1427.05,-939.5 1459.44,-939.5"/>
<polygon fill="#666666" stroke="#666666" points="1459.76,-941.95 1466.76,-939.5 1459.76,-937.05 1459.76,-941.95"/>
<text text-anchor="middle" x="1431.5" y="-942.1" font-family="Arial" font-size="8.00">1:N</text>
</g>
<!-- HM_CLUB_POST&#45;&gt;HM_CLUB_COMMENT -->
<g id="edge17" class="edge">
<title>HM_CLUB_POST&#45;&gt;HM_CLUB_COMMENT</title>
<path fill="none" stroke="#666666" d="M1337.35,-983.52C1394.39,-1013.46 1469.05,-1052.65 1523.22,-1081.08"/>
<polygon fill="#666666" stroke="#666666" points="1522.39,-1083.41 1529.72,-1084.5 1524.66,-1079.07 1522.39,-1083.41"/>
<text text-anchor="middle" x="1431.5" y="-1036.1" font-family="Arial" font-size="8.00">1:N</text>
</g>
<!-- HM_CLUB_COMMENT&#45;&gt;HM_CLUB_COMMENT -->
<g id="edge19" class="edge">
<title>HM_CLUB_COMMENT&#45;&gt;HM_CLUB_COMMENT</title>
<path fill="none" stroke="#666666" d="M1565.66,-1152.72C1561.53,-1169.78 1571.48,-1185 1595.5,-1185 1616.15,-1185 1626.39,-1173.76 1626.25,-1159.77"/>
<polygon fill="#666666" stroke="#666666" points="1628.66,-1159.35 1625.34,-1152.72 1623.8,-1159.97 1628.66,-1159.35"/>
<text text-anchor="middle" x="1595.5" y="-1187.6" font-family="Arial" font-size="8.00">1:N REPLY</text>
</g>
<!-- HM_BOARD_POST_IMAGE -->
<g id="node12" class="node">
<title>HM_BOARD_POST_IMAGE</title>
<polygon fill="#fce4ec" stroke="black" points="758,-10.5 758,-78.5 1029,-78.5 1029,-10.5 758,-10.5"/>
<text text-anchor="middle" x="823.5" y="-42.3" font-family="Arial" font-size="9.00">HM_BOARD_POST_IMAGE</text>
<polyline fill="none" stroke="black" points="889,-10.5 889,-78.5 "/>
<text text-anchor="start" x="897" y="-67.3" font-family="Arial" font-size="9.00">PK BOARD_POST_IMAGE_ID</text>
<text text-anchor="start" x="897" y="-57.3" font-family="Arial" font-size="9.00">FK BOARD_POST_ID</text>
<text text-anchor="start" x="897" y="-47.3" font-family="Arial" font-size="9.00">UPLOAD_TOKEN</text>
<text text-anchor="start" x="897" y="-37.3" font-family="Arial" font-size="9.00">FILE_URL</text>
<text text-anchor="start" x="897" y="-27.3" font-family="Arial" font-size="9.00">ALIGN_TYPE</text>
<text text-anchor="start" x="897" y="-17.3" font-family="Arial" font-size="9.00">IMAGE_STATUS</text>
</g>
<!-- HM_BOARD_POST&#45;&gt;HM_BOARD_POST_IMAGE -->
<g id="edge21" class="edge">
<title>HM_BOARD_POST&#45;&gt;HM_BOARD_POST_IMAGE</title>
<path fill="none" stroke="#666666" d="M610.61,-44.5C654.21,-44.5 704.67,-44.5 750.74,-44.5"/>
<polygon fill="#666666" stroke="#666666" points="750.8,-46.95 757.8,-44.5 750.8,-42.05 750.8,-46.95"/>
<text text-anchor="middle" x="704.5" y="-47.1" font-family="Arial" font-size="8.00">1:N</text>
</g>
<!-- HM_BOARD_POST&#45;&gt;HM_BOARD_COMMENT -->
<g id="edge22" class="edge">
<title>HM_BOARD_POST&#45;&gt;HM_BOARD_COMMENT</title>
<path fill="none" stroke="#666666" d="M610.61,-74.38C657.33,-86.83 711.91,-101.37 760.54,-114.33"/>
<polygon fill="#666666" stroke="#666666" points="759.96,-116.71 767.36,-116.15 761.23,-111.98 759.96,-116.71"/>
<text text-anchor="middle" x="704.5" y="-106.1" font-family="Arial" font-size="8.00">1:N</text>
</g>
<!-- HM_BOARD_COMMENT&#45;&gt;HM_BOARD_COMMENT -->
<g id="edge24" class="edge">
<title>HM_BOARD_COMMENT&#45;&gt;HM_BOARD_COMMENT</title>
<path fill="none" stroke="#666666" d="M861.84,-183.72C857.46,-200.78 868.01,-216 893.5,-216 915.4,-216 926.28,-204.76 926.12,-190.77"/>
<polygon fill="#666666" stroke="#666666" points="928.54,-190.32 925.16,-183.72 923.68,-190.98 928.54,-190.32"/>
<text text-anchor="middle" x="893.5" y="-218.6" font-family="Arial" font-size="8.00">1:N REPLY</text>
</g>
<!-- HM_SUGGESTION&#45;&gt;HM_SUGGESTION_REPLY -->
<g id="edge27" class="edge">
<title>HM_SUGGESTION&#45;&gt;HM_SUGGESTION_REPLY</title>
<path fill="none" stroke="#666666" d="M609.04,-291.61C653.31,-289.25 704.86,-286.5 751.77,-284"/>
<polygon fill="#666666" stroke="#666666" points="752.09,-286.44 758.95,-283.62 751.83,-281.54 752.09,-286.44"/>
<text text-anchor="middle" x="704.5" y="-291.1" font-family="Arial" font-size="8.00">1:N</text>
</g>
</g>
</svg>
